<svg xmlns="http://www.w3.org/2000/svg" xmlns:xlink="http://www.w3.org/1999/xlink" version="1.1" id="Layer_1" x="0px" y="0px" viewBox="0 0 32 32" style="enable-background:new 0 0 32 32;" xml:space="preserve">
<style type="text/css">
	.st0{fill:none;}
	.st1{fill:#0190f5;}
</style>
<path class="st0" d="M16.1,24.6c-0.1,0-0.2-0.1-0.2-0.1c0,0-0.1,0-0.1,0.1l-8.4,6.1V1h17.1v29.7L16.1,24.6z"/>
<title>Bookmark_Icons</title>
<g>
  <path class="st1" d="M24.5,32c-0.2,0-0.4-0.1-0.6-0.2l-8.1-5.9l-8.1,5.9C7.4,32,7,32,6.7,31.9c-0.3-0.2-0.5-0.5-0.5-0.9V1      c0-0.5,0.4-1,1-1h17.3c0.5,0,1,0.4,1,1v30c0,0.4-0.2,0.7-0.5,0.9C24.8,32,24.6,32,24.5,32z M15.9,23.7c0.2,0,0.4,0.1,0.6,0.2      l7.1,5.2V1.9H8.2v27.2l7.1-5.2C15.5,23.8,15.7,23.7,15.9,23.7z"/>
</g>
</svg>
