<svg xmlns="http://www.w3.org/2000/svg" xmlns:xlink="http://www.w3.org/1999/xlink" version="1.1" id="Layer_1" x="0px" y="0px" viewBox="0 0 32 32" style="enable-background:new 0 0 32 32;" width="16px" height="16px" xml:space="preserve">
<style type="text/css">
	.st0{fill:#FF0000;}
</style>
<path class="st0" d="M20.502,17.811c0.736-0.122,2.84-0.626,6.312-1.511c2.501-0.64,4.149-1.113,4.943-1.418l-2.604-8.057  c-3.855,1.618-7.297,3.403-10.328,5.356c0.706-4.975,1.059-9.034,1.059-12.177h-3.625h-0.502h-3.625  c0,3.143,0.353,7.202,1.059,12.177C10.16,10.228,6.718,8.443,2.863,6.825l-2.604,8.057c0.794,0.305,2.442,0.778,4.943,1.418  c3.472,0.885,5.576,1.389,6.312,1.511c-0.235,0.245-0.809,0.824-1.721,1.74c-2.295,2.259-4.502,4.624-6.621,7.096l6.665,5.356  c2.322-3.718,4.378-7.223,6.171-10.515c1.793,3.292,3.849,6.797,6.171,10.515l6.665-5.356c-2.119-2.472-4.326-4.837-6.621-7.096  C21.311,18.635,20.737,18.056,20.502,17.811z"/>
</svg>
