<svg xmlns="http://www.w3.org/2000/svg" xmlns:xlink="http://www.w3.org/1999/xlink" version="1.1" id="Layer_1" x="0px" y="0px" viewBox="0 0 32 32" style="enable-background:new 0 0 32 32;" width="16px" height="16px" xml:space="preserve">
<style type="text/css">
	.st0{fill:#ffc801;}
</style>
<path class="st0" d="M23.949,3.127c-1.957-0.952-4.046-1.438-6.21-1.445l-0.017,5.465c1.335,0.004,2.626,0.304,3.837,0.893  c4.387,2.135,6.221,7.441,4.087,11.828c-1.034,2.126-2.834,3.721-5.068,4.493c-2.234,0.772-4.635,0.628-6.76-0.406  c-2.126-1.034-3.721-2.833-4.493-5.067c-0.713-2.064-0.609-4.26,0.22-6.26l4.641,2.257L11.928,1.814L0,7.985l4.607,2.241  c-1.466,3.315-1.639,7.001-0.448,10.445c1.247,3.614,3.829,6.525,7.267,8.198c1.982,0.963,4.109,1.449,6.249,1.449  c1.574,0,3.155-0.263,4.686-0.792c3.613-1.248,6.525-3.83,8.197-7.268C34.012,15.162,31.046,6.58,23.949,3.127z"/>
</svg>
