<svg xmlns="http://www.w3.org/2000/svg" xmlns:xlink="http://www.w3.org/1999/xlink" width="16" height="16" version="1.1" id="Layer_1" x="0px" y="0px" viewBox="0 0 32 32" style="enable-background:new 0 0 32 32;" xml:space="preserve">
  <style type="text/css">
    .st0{fill:%230190f5;}
  </style>
  <g>
    <g>
      <path class="st0" d="M18.1,4.5V2.8h1.3c0.6,0,1-0.6,1-1.4S19.9,0,19.4,0h-6.7c-0.6,0-1,0.6-1,1.4s0.4,1.4,1,1.4h1.2v1.7    c-6.6,1-11.7,6.8-11.7,13.7C2.1,25.8,8.3,32,16,32c7.7,0,13.9-6.2,13.9-13.9C29.9,11.2,24.7,5.5,18.1,4.5z M16,29.2    c-6.1,0-11.1-5-11.1-11.1C4.9,12,9.9,7.1,16,7.1s11.1,5,11.1,11.1C27.1,24.3,22.1,29.2,16,29.2z"/>
      <path class="st0" d="M17.4,17.7l0-6.7c0-0.8-0.6-1.4-1.4-1.4c-0.8,0-1.4,0.6-1.4,1.4l0,7.1c-0.1,0.4,0.1,0.8,0.4,1.2l4.3,4.4    c0.3,0.3,0.6,0.4,1,0.4c0.4,0,0.7-0.1,1-0.4c0.5-0.5,0.5-1.4,0-2L17.4,17.7z"/>
    </g>
  </g>
</svg>
